<svg xmlns="http://www.w3.org/2000/svg" xmlns:xlink="http://www.w3.org/1999/xlink" viewBox="0 0 624.89 751.8"><defs><style>.cls-1,.cls-10,.cls-11,.cls-12,.cls-13,.cls-14,.cls-15,.cls-16,.cls-17,.cls-18,.cls-19,.cls-2,.cls-3,.cls-4,.cls-5,.cls-6,.cls-7,.cls-8,.cls-9{stroke-miterlimit:10;}.cls-1{fill:url(#linear-gradient);stroke:url(#linear-gradient-2);}.cls-2,.cls-3,.cls-4,.cls-5,.cls-6,.cls-8{fill:none;}.cls-2{stroke:url(#linear-gradient-3);}.cls-3{stroke:url(#linear-gradient-4);}.cls-4,.cls-5,.cls-6,.cls-8{stroke-width:3px;}.cls-4{stroke:url(#linear-gradient-5);}.cls-5{stroke:url(#linear-gradient-6);}.cls-6{stroke:url(#linear-gradient-7);}.cls-7{fill:url(#radial-gradient);stroke:url(#linear-gradient-8);}.cls-8{stroke:url(#linear-gradient-9);}.cls-9{fill:url(#linear-gradient-10);stroke:url(#linear-gradient-11);}.cls-10{fill:url(#linear-gradient-12);stroke:url(#linear-gradient-13);}.cls-11{fill:url(#linear-gradient-14);stroke:url(#linear-gradient-15);}.cls-12{fill:url(#linear-gradient-16);stroke:url(#linear-gradient-17);}.cls-13{fill:url(#linear-gradient-18);stroke:url(#linear-gradient-19);}.cls-14{fill:url(#linear-gradient-20);stroke:url(#linear-gradient-21);}.cls-15{fill:url(#linear-gradient-22);stroke:url(#linear-gradient-23);}.cls-16{fill:url(#linear-gradient-24);stroke:url(#linear-gradient-25);}.cls-17{fill:url(#linear-gradient-26);stroke:url(#linear-gradient-27);}.cls-18{fill:url(#linear-gradient-28);stroke:url(#linear-gradient-29);}.cls-19{fill:url(#linear-gradient-30);stroke:url(#linear-gradient-31);}.cls-20{fill:url(#linear-gradient-32);}.cls-21{fill:url(#linear-gradient-33);}.cls-22{fill:url(#linear-gradient-34);}.cls-23{fill:url(#linear-gradient-35);}.cls-24{fill:url(#linear-gradient-36);}.cls-25{fill:url(#linear-gradient-37);}.cls-26{fill:url(#linear-gradient-38);}.cls-27{fill:url(#linear-gradient-39);}.cls-28{fill:url(#linear-gradient-40);}.cls-29{fill:url(#linear-gradient-41);}.cls-30{fill:url(#linear-gradient-42);}.cls-31{fill:url(#linear-gradient-43);}.cls-32{fill:url(#linear-gradient-44);}.cls-33{fill:url(#linear-gradient-45);}.cls-34{fill:url(#linear-gradient-46);}.cls-35{fill:url(#linear-gradient-47);}.cls-36{fill:url(#linear-gradient-48);}.cls-37{fill:url(#linear-gradient-49);}.cls-38{fill:url(#linear-gradient-50);}.cls-39{fill:url(#linear-gradient-51);}.cls-40{fill:url(#linear-gradient-52);}</style><linearGradient id="linear-gradient" x1="455.72" y1="93.62" x2="496.23" y2="93.62" gradientUnits="userSpaceOnUse"><stop offset="0" stop-color="#909090"/><stop offset="1" stop-color="#e0e1e5"/></linearGradient><linearGradient id="linear-gradient-2" x1="455.22" y1="93.31" x2="496.73" y2="93.31" gradientUnits="userSpaceOnUse"><stop offset="0" stop-color="#b77f34"/><stop offset="0.24" stop-color="#b4802c"/><stop offset="0.24" stop-color="#b78531"/><stop offset="0.29" stop-color="#cfac58"/><stop offset="0.34" stop-color="#e2ca77"/><stop offset="0.39" stop-color="#efe08d"/><stop offset="0.44" stop-color="#f7ee9a"/><stop offset="0.48" stop-color="#faf29f"/><stop offset="0.54" stop-color="#f5ea96"/><stop offset="0.65" stop-color="#e9d37d"/><stop offset="0.78" stop-color="#d4af56"/><stop offset="0.81" stop-color="#cea44a"/><stop offset="1" stop-color="#fae27e"/></linearGradient><linearGradient id="linear-gradient-3" x1="383.48" y1="144.68" x2="416.95" y2="144.68" xlink:href="#linear-gradient-2"/><linearGradient id="linear-gradient-4" x1="300.27" y1="138.93" x2="316.5" y2="138.93" xlink:href="#linear-gradient-2"/><linearGradient id="linear-gradient-5" x1="84.22" y1="420.12" x2="353.34" y2="151.01" xlink:href="#linear-gradient-2"/><linearGradient id="linear-gradient-6" x1="32.14" y1="212.73" x2="101.4" y2="212.73" xlink:href="#linear-gradient-2"/><linearGradient id="linear-gradient-7" x1="152" y1="259.09" x2="260.88" y2="259.09" xlink:href="#linear-gradient-2"/><radialGradient id="radial-gradient" cx="205.32" cy="259.64" r="19.11" gradientUnits="userSpaceOnUse"><stop offset="0" stop-color="#469a44"/><stop offset="1" stop-color="#82c63f"/></radialGradient><linearGradient id="linear-gradient-8" x1="185.8" y1="259.5" x2="224.84" y2="259.5" xlink:href="#linear-gradient-2"/><linearGradient id="linear-gradient-9" x1="192.92" y1="390.6" x2="284.68" y2="390.6" xlink:href="#linear-gradient-2"/><linearGradient id="linear-gradient-10" x1="571.44" y1="364.79" x2="225.56" y2="315.38" gradientUnits="userSpaceOnUse"><stop offset="0" stop-color="#b77f34"/><stop offset="0.22" stop-color="#faf29f"/><stop offset="0.44" stop-color="#fae27e"/><stop offset="0.74" stop-color="#fcf19f"/><stop offset="1" stop-color="#b4802c"/></linearGradient><linearGradient id="linear-gradient-11" x1="299.71" y1="330.73" x2="585.25" y2="330.73" xlink:href="#linear-gradient-2"/><linearGradient id="linear-gradient-12" x1="303.28" y1="214.33" x2="420.63" y2="214.33" xlink:href="#linear-gradient-10"/><linearGradient id="linear-gradient-13" x1="302.78" y1="214.36" x2="421.14" y2="214.36" xlink:href="#linear-gradient-2"/><linearGradient id="linear-gradient-14" x1="300.92" y1="298.02" x2="359.04" y2="298.02" xlink:href="#linear-gradient-10"/><linearGradient id="linear-gradient-15" x1="300.42" y1="298.02" x2="359.54" y2="298.02" xlink:href="#linear-gradient-2"/><linearGradient id="linear-gradient-16" x1="300.92" y1="316.28" x2="359.04" y2="316.28" xlink:href="#linear-gradient-10"/><linearGradient id="linear-gradient-17" x1="300.42" y1="316.28" x2="359.54" y2="316.28" xlink:href="#linear-gradient-2"/><linearGradient id="linear-gradient-18" x1="307.33" y1="334.55" x2="359.04" y2="334.55" xlink:href="#linear-gradient-10"/><linearGradient id="linear-gradient-19" x1="307.26" y1="334.55" x2="359.54" y2="334.55" xlink:href="#linear-gradient-2"/><linearGradient id="linear-gradient-20" x1="313.61" y1="352.81" x2="359.04" y2="352.81" xlink:href="#linear-gradient-10"/><linearGradient id="linear-gradient-21" x1="313.52" y1="352.81" x2="359.54" y2="352.81" xlink:href="#linear-gradient-2"/><linearGradient id="linear-gradient-22" x1="300.92" y1="371.08" x2="359.04" y2="371.08" xlink:href="#linear-gradient-10"/><linearGradient id="linear-gradient-23" x1="300.42" y1="371.08" x2="359.54" y2="371.08" xlink:href="#linear-gradient-2"/><linearGradient id="linear-gradient-24" x1="300.92" y1="389.34" x2="359.04" y2="389.34" xlink:href="#linear-gradient-10"/><linearGradient id="linear-gradient-25" x1="300.42" y1="389.34" x2="359.54" y2="389.34" xlink:href="#linear-gradient-2"/><linearGradient id="linear-gradient-26" x1="300.92" y1="407.61" x2="359.04" y2="407.61" xlink:href="#linear-gradient-10"/><linearGradient id="linear-gradient-27" x1="300.42" y1="407.61" x2="359.54" y2="407.61" xlink:href="#linear-gradient-2"/><linearGradient id="linear-gradient-28" x1="298.1" y1="343.85" x2="329.16" y2="343.85" xlink:href="#linear-gradient-10"/><linearGradient id="linear-gradient-29" x1="297.6" y1="343.84" x2="330" y2="343.84" xlink:href="#linear-gradient-2"/><linearGradient id="linear-gradient-30" x1="300.98" y1="355.65" x2="411.51" y2="355.65" xlink:href="#linear-gradient-10"/><linearGradient id="linear-gradient-31" x1="300.46" y1="355.65" x2="412.01" y2="355.65" xlink:href="#linear-gradient-2"/><linearGradient id="linear-gradient-32" x1="119.11" y1="650.7" x2="160.28" y2="650.7" xlink:href="#linear-gradient-2"/><linearGradient id="linear-gradient-33" x1="181.63" y1="649.93" x2="259.8" y2="649.93" xlink:href="#linear-gradient-2"/><linearGradient id="linear-gradient-34" x1="274.22" y1="649.93" x2="350.87" y2="649.93" xlink:href="#linear-gradient-2"/><linearGradient id="linear-gradient-35" x1="377.48" y1="650.7" x2="446.37" y2="650.7" xlink:href="#linear-gradient-2"/><linearGradient id="linear-gradient-36" x1="463.83" y1="649.93" x2="542.01" y2="649.93" xlink:href="#linear-gradient-2"/><linearGradient id="linear-gradient-37" x1="564.04" y1="649.59" x2="624.89" y2="649.59" xlink:href="#linear-gradient-2"/><linearGradient id="linear-gradient-38" x1="188.96" y1="739.33" x2="208.85" y2="739.33" xlink:href="#linear-gradient-10"/><linearGradient id="linear-gradient-39" x1="219.39" y1="739.32" x2="222.52" y2="739.32" xlink:href="#linear-gradient-10"/><linearGradient id="linear-gradient-40" x1="233.24" y1="739.3" x2="247.91" y2="739.3" xlink:href="#linear-gradient-10"/><linearGradient id="linear-gradient-41" x1="258.67" y1="739.23" x2="273.59" y2="739.23" xlink:href="#linear-gradient-10"/><linearGradient id="linear-gradient-42" x1="279.42" y1="739.32" x2="299.71" y2="739.32" xlink:href="#linear-gradient-10"/><linearGradient id="linear-gradient-43" x1="304.2" y1="739.32" x2="322.15" y2="739.32" xlink:href="#linear-gradient-10"/><linearGradient id="linear-gradient-44" x1="328.92" y1="739.3" x2="347.33" y2="739.3" xlink:href="#linear-gradient-10"/><linearGradient id="linear-gradient-45" x1="357.69" y1="739.32" x2="375.71" y2="739.32" xlink:href="#linear-gradient-10"/><linearGradient id="linear-gradient-46" x1="400.49" y1="739.3" x2="415.17" y2="739.3" xlink:href="#linear-gradient-10"/><linearGradient id="linear-gradient-47" x1="425.93" y1="739.32" x2="439.56" y2="739.32" xlink:href="#linear-gradient-10"/><linearGradient id="linear-gradient-48" x1="450.1" y1="739.23" x2="465.88" y2="739.23" xlink:href="#linear-gradient-10"/><linearGradient id="linear-gradient-49" x1="473.91" y1="739.32" x2="493.94" y2="739.32" xlink:href="#linear-gradient-10"/><linearGradient id="linear-gradient-50" x1="503.04" y1="739.32" x2="506.17" y2="739.32" xlink:href="#linear-gradient-10"/><linearGradient id="linear-gradient-51" x1="516.68" y1="739.3" x2="535.09" y2="739.3" xlink:href="#linear-gradient-10"/><linearGradient id="linear-gradient-52" x1="545.45" y1="739.32" x2="559.08" y2="739.32" xlink:href="#linear-gradient-10"/></defs><g id="Layer_2" data-name="Layer 2"><g id="Layer_1-2" data-name="Layer 1"><path class="cls-1" d="M455.72,181.25V74.56c0-25.88,38.14-73.41,38.14-73.41s2.59,13.18,2.36,23.3-.47,20.47-9.18,31.29-9.18,16.71-9.18,29.65v100.7l-18.11-1.17Z"/><circle class="cls-2" cx="400.22" cy="144.68" r="16.24"/><path class="cls-3" d="M300.29,122.71a16.24,16.24,0,0,1,.36,32.44"/><path class="cls-4" d="M42.81,168.8s50.35-5.7,72-8.24c32.11-3.76,19.06-16.45,69.88-35.17,46.94-17.3,87.53-8.11,105.53,9.88V90.8s-50.83-3-86.12.7c-34.47,3.59-47.29,12-72,26.12S89.22,134.39,56.92,133,2,123.62,1.51,167.74s18.24,76,39.65,95.06,31.76,15.29,31.53,38.12,2.12,55.29,45.64,98.82,70.36,72.71,74.36,97.88,4.94,68.47,97.53,72.24V536.8a31.28,31.28,0,0,1-25.77-8.24c-4.47-4-6.82-3.41-10.35-3.06s-27.77-2.23-31.18-40.47c0,0,15.53,20.83,31.77,18.36s35.53-4.47,35.53-4.47V488.21s-37.65-.47-43.06-1.18-6-5.53-7.06-11.76c-.76-4.48-2.07-13.69-2.74-18.52a2.81,2.81,0,0,1,2.72-3.2h0A2.77,2.77,0,0,1,242.6,455c2.23,4,9.81,15,27.38,17.33,16.24,2.12,20.24,1.53,20.24,1.53V338.45s-20.59-5.65-29.65-9.42-13.09-6.09-18.62,3c-2.46,4-9.17,3.22-15.85,4.57s-46.18-.58-55.71,60.06c0,0-51-24.53-64.76-78.88S130,216.56,130,216.56L97.63,203.62l20.47-12.23S73.86,194.21,42.81,168.8Z"/><path class="cls-5" d="M33.75,177.5,72.1,210.21l-7.77,6.35L99.39,237.5s-4.71,8.62-6.58,11.53C89.63,254,35.63,235.62,33.75,177.5Z"/><path class="cls-6" d="M169,223.33s1.94,5.47.71,16.59S167,277,188.57,286.68s41.12,3.53,48.71.88c-1.24,10.59-2.12,19.06-2.12,19.06s22.94-20.29,24.17-42S236,229.15,236,229.15s10.06,21.53,11.12,25.77,1.23,11.47-10.94,5.47c-5-2.46-15.68-9.95-26.8-19.77-16-14.15-32.67-31.23-48.2-31.23-9.36,0-7.59,14.82-7.59,14.82Z"/><path class="cls-7" d="M188.69,240.45s-6.94,24,2.82,32.35,24.71,6,27.88,4.7,5.06-7.76,4.94-10.35l-19,1.41s3.49-12.7-.87-16.94S188.69,240.45,188.69,240.45Z"/><path class="cls-8" d="M198.13,366.13l23.55,14.65a.6.6,0,0,1-.45,1.09l-25.08-5.82a.6.6,0,0,0-.74.55l-1,18.22a.6.6,0,0,0,.54.62l29.84,2.91a.6.6,0,0,1,0,1.18l-29.57,5.92a.59.59,0,0,0-.38.92c1.59,2.25,6.68,8.91,12.38,10.37,4.87,1.25,13.64-1,18.34-2.48a.59.59,0,0,1,.54,1L211.6,426.8S236.92,443,262,427.86s24.18-18.58,16.24-31.44c-6.93-11.22-19.1-32.4-22.09-37.62a.6.6,0,0,0-1.09.12l-3.44,10.93a.59.59,0,0,1-1.07.14l-14.38-22.85a.59.59,0,0,0-.77-.22l-37.19,18.17A.6.6,0,0,0,198.13,366.13Z"/><path class="cls-9" d="M575.22,464.39A602.56,602.56,0,0,0,566.75,403c-6.18-31.58-20.47-48.35-36.18-48.53-13.9-.15-64.82-4.94-64.82-4.94l-.24-8L510,344.56V265.39c0-15.3-43.88-14-43.88-14L511.16,229l-14.59,13.53s3.18,8.18,9.41,8.18h13c6.65,0,9.47-2.65,9.47-9.47V182c0-6.53-2.38-11.38-7.85-11.38H504.9c-5.3,0-9.15,3.79-9.15,8.38v6.83c-34.35-1.18-50.59-7.53-50.59-7.53-4.47-64.94-2.59-70.36-7.53-74.12C412.7,85.21,301.4,88,301.4,88h-1.18l.47,30.59c7.18,0,21.18,5.65,21.12,18.65s-7.06,17.29-12.36,20.12-3.82,8.64-3.82,8.64l37.06,1.3s1.41-7.3,10.12-7.3,11.29,8.83,11.29,8.83,42.24,2.82,51.77,2.64,11.29,3.18,11.47,13.42,2.47,69,2.47,69,12.67,9.53,12.67,26.47V463H300.22v43.94h50.36a6.52,6.52,0,0,1,6.52,6.52v17.36a6.52,6.52,0,0,1-6.52,6.52H300.22v36.31H584.75V464.39Zm-175-299.3a20.41,20.41,0,1,1,20.41-20.41A20.41,20.41,0,0,1,400.22,165.09Zm97.65,259.82h-30a5.29,5.29,0,0,1-5.29-5.29V403.86a5.29,5.29,0,0,1,5.29-5.3h30Zm36.11,0H504V398.56h30a5.3,5.3,0,0,1,5.3,5.3v15.76A5.29,5.29,0,0,1,534,424.91Z"/><polygon class="cls-10" points="303.28 175.33 303.28 237.09 420.63 253.33 419.04 179.74 303.28 175.33"/><rect class="cls-11" x="300.92" y="293.21" width="58.12" height="9.62" rx="3.09"/><rect class="cls-12" x="300.92" y="311.48" width="58.12" height="9.62" rx="3.09"/><path class="cls-13" d="M359,332.83v3.44a3.09,3.09,0,0,1-3.09,3.09H335l-1.71-1.24c-1-.71-9.07-6.22-25.93-8.38H356A3.09,3.09,0,0,1,359,332.83Z"/><path class="cls-14" d="M359,351.09v3.44a3.09,3.09,0,0,1-3.09,3.09H313.61a46.66,46.66,0,0,0,19.78-8.25L335.2,348H356A3.09,3.09,0,0,1,359,351.09Z"/><rect class="cls-15" x="300.92" y="366.27" width="58.12" height="9.62" rx="3.09"/><rect class="cls-16" x="300.92" y="384.53" width="58.12" height="9.62" rx="3.09"/><rect class="cls-17" x="300.92" y="402.8" width="58.12" height="9.62" rx="3.09"/><path class="cls-18" d="M298.1,336v15.64s18.59,1.65,31.06-7.82C329.16,343.8,319.63,336.92,298.1,336Z"/><path class="cls-19" d="M411.51,274.8V445.27H301v-8.59h60.24v1.85a2.5,2.5,0,0,0,2.5,2.5h5.71a2.5,2.5,0,0,0,2.5-2.5v-1.85h35v-8.47H374.63a2.53,2.53,0,0,1-2.53-2.53v-5.26a2.53,2.53,0,0,1,2.53-2.53H407v-9H374.63a2.53,2.53,0,0,1-2.53-2.53v-5.26a2.53,2.53,0,0,1,2.53-2.53H407v-9H374.63a2.53,2.53,0,0,1-2.53-2.53v-5.26a2.53,2.53,0,0,1,2.53-2.53H407v-9H374.63a2.53,2.53,0,0,1-2.53-2.53v-5.26a2.53,2.53,0,0,1,2.53-2.53H407v-9H374.63a2.53,2.53,0,0,1-2.53-2.53V343.3a2.53,2.53,0,0,1,2.53-2.53H407v-9H374.63a2.53,2.53,0,0,1-2.53-2.53V324a2.53,2.53,0,0,1,2.53-2.53H407v-9H374.63A2.53,2.53,0,0,1,372.1,310v-5.26a2.53,2.53,0,0,1,2.53-2.53H407v-8.56H374.63a2.53,2.53,0,0,1-2.53-2.53v-5.26a2.53,2.53,0,0,1,2.53-2.53H407.4v-4.59s-22.59-2.47-30.53-3.71-5.3-5.47-5.3-5.47l-8.82.18a19.63,19.63,0,0,0-3.71,6V284L301,283l.71-16.94h70.88Z"/><path class="cls-20" d="M148.22,603.22h12.06v62.52c0,24.81-12.2,32.43-28.27,32.43a39,39,0,0,1-12.9-2.22l1.81-9.84a28.74,28.74,0,0,0,10.11,1.8c10.82,0,17.19-4.85,17.19-23.14Z"/><path class="cls-21" d="M203.8,667.26l-9.7,29.39H181.63l31.74-93.43h14.55l31.88,93.43H246.91l-10-29.39Zm30.64-9.43-9.15-26.89c-2.08-6.09-3.47-11.64-4.85-17h-.28c-1.39,5.54-2.91,11.22-4.71,16.91l-9.15,27Z"/><path class="cls-22" d="M350.87,692.49a87.07,87.07,0,0,1-28.69,5.13c-14.14,0-25.79-3.61-34.93-12.34-8-7.76-13-20.24-13-34.79.14-27.86,19.26-48.24,50.59-48.24,10.81,0,19.27,2.36,23.29,4.3l-2.91,9.84c-5-2.22-11.23-4-20.66-4-22.73,0-37.56,14.14-37.56,37.56,0,23.71,14.28,37.71,36,37.71,7.9,0,13.3-1.11,16.08-2.5V657.28h-19v-9.7h30.77Z"/><path class="cls-23" d="M389.68,603.22v55.31c0,20.93,9.28,29.8,21.76,29.8,13.86,0,22.73-9.15,22.73-29.8V603.22h12.2V657.7c0,28.69-15.11,40.47-35.35,40.47-19.13,0-33.54-10.95-33.54-39.92v-55Z"/><path class="cls-24" d="M486,667.26l-9.7,29.39H463.83l31.74-93.43h14.56L542,696.65H529.12l-10-29.39Zm30.63-9.43-9.15-26.89c-2.08-6.09-3.46-11.64-4.85-17h-.28c-1.38,5.54-2.91,11.22-4.71,16.91l-9.15,27Z"/><path class="cls-25" d="M564,604.47a125.4,125.4,0,0,1,23.15-1.94c12.89,0,21.21,2.36,27,7.62,4.71,4.16,7.35,10.54,7.35,17.75,0,12.33-7.77,20.51-17.61,23.84v.41c7.21,2.5,11.51,9.15,13.73,18.85,3,13,5.26,22,7.2,25.65H612.42c-1.53-2.64-3.61-10.68-6.24-22.32-2.77-12.89-7.76-17.74-18.71-18.16H576.1v40.48H564ZM576.1,647h12.34c12.89,0,21.07-7.07,21.07-17.74,0-12.06-8.73-17.33-21.49-17.46a49.3,49.3,0,0,0-11.92,1.11Z"/><path class="cls-26" d="M189,727.52a44.45,44.45,0,0,1,6.65-.5c4.5,0,7.7,1,9.82,3s3.42,4.78,3.42,8.7a12.83,12.83,0,0,1-3.49,9.42c-2.27,2.27-6,3.49-10.72,3.49a53.08,53.08,0,0,1-5.68-.28ZM192.09,749a20.16,20.16,0,0,0,3.16.18c6.69,0,10.32-3.74,10.32-10.29,0-5.72-3.2-9.35-9.82-9.35a17.73,17.73,0,0,0-3.66.32Z"/><path class="cls-27" d="M222.52,727.2v24.24h-3.13V727.2Z"/><path class="cls-28" d="M234,747.62a11,11,0,0,0,5.61,1.59c3.2,0,5.07-1.69,5.07-4.14,0-2.26-1.3-3.56-4.57-4.82-3.95-1.4-6.4-3.45-6.4-6.87,0-3.77,3.13-6.58,7.84-6.58a11,11,0,0,1,5.36,1.19l-.87,2.55a9.63,9.63,0,0,0-4.6-1.15c-3.31,0-4.57,2-4.57,3.63,0,2.27,1.48,3.38,4.82,4.68,4.1,1.58,6.19,3.56,6.19,7.12,0,3.74-2.77,7-8.49,7a12.51,12.51,0,0,1-6.18-1.55Z"/><path class="cls-29" d="M258.67,727.48a36.47,36.47,0,0,1,6-.46c3.1,0,5.36.72,6.8,2a6.51,6.51,0,0,1,2.12,5.07,7.14,7.14,0,0,1-1.87,5.18c-1.65,1.76-4.35,2.66-7.41,2.66a10.74,10.74,0,0,1-2.51-.21v9.71h-3.13Zm3.13,11.69a10.44,10.44,0,0,0,2.59.25c3.77,0,6.07-1.83,6.07-5.17s-2.26-4.75-5.72-4.75a13.28,13.28,0,0,0-2.94.25Z"/><path class="cls-30" d="M285.18,743.81l-2.52,7.63h-3.24l8.24-24.24h3.77l8.28,24.24h-3.35l-2.59-7.63Zm7.94-2.44-2.37-7c-.54-1.58-.9-3-1.26-4.42h-.07c-.36,1.43-.76,2.91-1.22,4.38l-2.38,7Z"/><path class="cls-31" d="M311.58,729.86H304.2V727.2h17.95v2.66h-7.41v21.58h-3.16Z"/><path class="cls-32" d="M347.29,750.65a15.61,15.61,0,0,1-6.4,1.15c-6.83,0-12-4.32-12-12.27,0-7.59,5.14-12.73,12.66-12.73a13,13,0,0,1,5.75,1.08l-.76,2.55a11.44,11.44,0,0,0-4.89-1c-5.68,0-9.45,3.63-9.45,10,0,5.94,3.41,9.75,9.31,9.75a12.39,12.39,0,0,0,5.11-1Z"/><path class="cls-33" d="M360.82,727.2v10.14h11.72V727.2h3.17v24.24h-3.17V740.07H360.82v11.37h-3.13V727.2Z"/><path class="cls-34" d="M401.29,747.62a11,11,0,0,0,5.61,1.59c3.2,0,5.07-1.69,5.07-4.14,0-2.26-1.3-3.56-4.57-4.82-4-1.4-6.4-3.45-6.4-6.87,0-3.77,3.13-6.58,7.84-6.58A11,11,0,0,1,414.2,728l-.87,2.55a9.67,9.67,0,0,0-4.6-1.15c-3.31,0-4.57,2-4.57,3.63,0,2.27,1.48,3.38,4.82,4.68,4.1,1.58,6.19,3.56,6.19,7.12,0,3.74-2.77,7-8.49,7a12.59,12.59,0,0,1-6.19-1.55Z"/><path class="cls-35" d="M438.48,740.07h-9.43v8.74h10.51v2.63H425.93V727.2H439v2.62h-10v7.66h9.43Z"/><path class="cls-36" d="M450.1,727.52a32.83,32.83,0,0,1,6-.5c3.35,0,5.51.61,7,2a6.06,6.06,0,0,1,1.9,4.61,6.35,6.35,0,0,1-4.57,6.18v.11c1.87.65,3,2.38,3.56,4.89a40.11,40.11,0,0,0,1.87,6.66h-3.23a30.91,30.91,0,0,1-1.62-5.79c-.72-3.35-2-4.61-4.86-4.71h-2.94v10.5H450.1Zm3.13,11h3.2c3.34,0,5.46-1.83,5.46-4.6,0-3.13-2.26-4.5-5.57-4.53a13.16,13.16,0,0,0-3.09.28Z"/><path class="cls-37" d="M481.82,751.44l-7.91-24.24h3.38l3.78,11.94c1,3.27,1.94,6.22,2.58,9.06h.08c.68-2.8,1.69-5.86,2.77-9l4.1-12h3.34l-8.67,24.24Z"/><path class="cls-38" d="M506.17,727.2v24.24H503V727.2Z"/><path class="cls-39" d="M535.05,750.65a15.61,15.61,0,0,1-6.4,1.15c-6.83,0-12-4.32-12-12.27,0-7.59,5.14-12.73,12.66-12.73a13,13,0,0,1,5.75,1.08l-.76,2.55a11.44,11.44,0,0,0-4.89-1c-5.68,0-9.45,3.63-9.45,10,0,5.94,3.41,9.75,9.31,9.75a12.39,12.39,0,0,0,5.11-1Z"/><path class="cls-40" d="M558,740.07h-9.42v8.74h10.5v2.63H545.45V727.2h13.09v2.62h-10v7.66H558Z"/></g></g></svg>