<?xml version="1.0" encoding="utf-8"?>
<!-- Generator: Adobe Illustrator 26.0.1, SVG Export Plug-In . SVG Version: 6.00 Build 0)  -->
<svg version="1.1" id="Layer_1" xmlns="http://www.w3.org/2000/svg" xmlns:xlink="http://www.w3.org/1999/xlink" x="0px" y="0px"
	 viewBox="0 0 709.4 883.1" style="enable-background:new 0 0 709.4 883.1;" xml:space="preserve">
<style type="text/css">
	.st0{fill:#070707;}
	.st1{fill:url(#SVGID_1_);stroke:#000000;stroke-miterlimit:10;}
	.st2{fill:none;stroke:#FFFFFF;stroke-miterlimit:10;}
	.st3{fill:url(#SVGID_00000165922946100936969600000009220772819169436068_);stroke:#000000;stroke-miterlimit:10;}
	.st4{fill:url(#SVGID_00000077323482409555355070000010361624301896972697_);stroke:#000000;stroke-miterlimit:10;}
	.st5{fill:url(#SVGID_00000139278287518044714490000015069830135355536018_);stroke:#000000;stroke-miterlimit:10;}
	.st6{fill:url(#SVGID_00000117670875540582162840000012991334690101775018_);stroke:#000000;stroke-miterlimit:10;}
	.st7{fill:url(#SVGID_00000103225723106263612540000000049220224889846184_);stroke:#000000;stroke-miterlimit:10;}
	.st8{fill:url(#SVGID_00000094599915184057595190000011955029170727676845_);stroke:#000000;stroke-miterlimit:10;}
	.st9{fill:url(#SVGID_00000129164108040975057690000004815025928146644400_);stroke:#000000;stroke-miterlimit:10;}
	.st10{fill:url(#SVGID_00000091707212853935036680000014219573362493440909_);stroke:#000000;stroke-miterlimit:10;}
	.st11{fill:url(#SVGID_00000102507853510368156850000011258977446559445416_);stroke:#000000;stroke-miterlimit:10;}
	.st12{fill:url(#SVGID_00000160884703570791177670000001454400627987227310_);stroke:#000000;stroke-miterlimit:10;}
	.st13{fill:url(#SVGID_00000029039315233854340610000007400067801040939186_);}
	.st14{fill:none;stroke:url(#SVGID_00000012454769595927880050000015432902504702614966_);stroke-width:3;stroke-miterlimit:10;}
	.st15{fill:none;stroke:url(#SVGID_00000012464821063229564510000007713789524147700108_);stroke-width:3;stroke-miterlimit:10;}
	.st16{fill:none;stroke:#FFFFFF;stroke-width:4;stroke-miterlimit:10;}
	.st17{stroke:url(#SVGID_00000033348244247100197230000001455653500132504728_);stroke-width:3;stroke-miterlimit:10;}
	.st18{fill:url(#SVGID_00000077288112869969481760000016056613377712721591_);}
	.st19{fill:none;stroke:url(#SVGID_00000011005057115697027060000015986942285944802440_);stroke-width:3;stroke-miterlimit:10;}
	.st20{fill:url(#SVGID_00000113324890826909807780000007102556232613992884_);stroke:#000000;stroke-miterlimit:10;}
	.st21{fill:url(#SVGID_00000040555945876258093580000012963910700547411117_);}
	.st22{fill:none;stroke:url(#SVGID_00000013164147952336677630000005587189931203449764_);stroke-miterlimit:10;}
	.st23{fill:none;stroke:url(#SVGID_00000115475870374785231760000009646078564045928615_);stroke-miterlimit:10;}
	.st24{fill:none;stroke:url(#SVGID_00000183966400720482576300000017749075298327487117_);stroke-width:3;stroke-miterlimit:10;}
	.st25{fill:none;stroke:url(#SVGID_00000021839379340485308480000013005930065146150568_);stroke-width:3;stroke-miterlimit:10;}
	.st26{fill:none;stroke:url(#SVGID_00000149369974102217680380000012996353459567165115_);stroke-width:3;stroke-miterlimit:10;}
	.st27{fill:url(#SVGID_00000161630642008645895160000004754648763515908261_);}
	.st28{fill:none;stroke:url(#SVGID_00000119808989225552732610000003202240286062613420_);stroke-width:3;stroke-miterlimit:10;}
	.st29{fill:url(#SVGID_00000005265950754182201830000005993891241434722203_);}
	.st30{fill:url(#SVGID_00000148654733175479529630000015090030499853985723_);}
	.st31{fill:url(#SVGID_00000096777887473013549960000002934215413952683412_);}
	.st32{fill:url(#SVGID_00000000196528069273765880000008167276386000208802_);}
	.st33{fill:url(#SVGID_00000042704307603323613080000009175363174028574384_);}
	.st34{fill:url(#SVGID_00000140693033447261285150000013852778548014384513_);}
	.st35{fill:url(#SVGID_00000082364327992249359310000006847868572444148910_);}
	.st36{fill:url(#SVGID_00000057849690247383252440000005038771191882706082_);}
	.st37{fill:url(#SVGID_00000113315091990101924180000013215440189031485089_);}
	.st38{fill:url(#SVGID_00000176756498664588032390000012550226372738960528_);}
	.st39{fill:url(#SVGID_00000108274022361269638720000006158483020509927863_);}
	.st40{fill:url(#SVGID_00000116230536719671528110000001641614312114466739_);}
	.st41{fill:url(#SVGID_00000125601548700146924560000003222948713055106202_);}
	.st42{fill:url(#SVGID_00000030477811390613909620000002915048862080653753_);}
	.st43{fill:url(#SVGID_00000177445275235745443840000004119566613402108862_);}
	.st44{fill:url(#SVGID_00000165938627173261881260000008309458622277696674_);}
	.st45{fill:url(#SVGID_00000098927923094951011470000003281339478388222874_);}
	.st46{fill:url(#SVGID_00000008120989503569363590000001001911234098749876_);}
	.st47{fill:url(#SVGID_00000152240616226348463570000013745575729059620011_);}
	.st48{fill:url(#SVGID_00000047777972552316201820000015136747035495922108_);}
	.st49{fill:url(#SVGID_00000008149040774443802030000000065259617471514757_);}
	.st50{fill:url(#SVGID_00000172405388863550246160000012429058749645708440_);}
	.st51{fill:url(#SVGID_00000160892397049788033750000010187585135842132353_);}
	.st52{fill:url(#SVGID_00000062158126676751423610000004430823101933963429_);}
	.st53{fill:url(#SVGID_00000173882811551683408320000008674495904828757938_);}
	.st54{fill:url(#SVGID_00000151529212459829511740000000485881092168952204_);}
	.st55{fill:url(#SVGID_00000124871369469768350660000017245532401243461052_);}
	.st56{fill:url(#SVGID_00000072272145512107739440000014035229316188455580_);}
	.st57{fill:url(#SVGID_00000071546716285858520010000015874780849085133228_);}
	.st58{fill:url(#SVGID_00000086674192794633086930000004300768253232296862_);}
	.st59{fill:url(#SVGID_00000099657647762172281150000013824617312841406898_);}
	.st60{fill:url(#SVGID_00000169556626394592745430000018227324284573604277_);}
	.st61{fill:url(#SVGID_00000083810360981859074340000011518640759223240101_);}
	.st62{fill:none;stroke:url(#SVGID_00000168800694118421766280000013954949751686731175_);stroke-miterlimit:10;}
	.st63{fill:none;stroke:url(#SVGID_00000093175265161502952140000007853731072178079117_);stroke-miterlimit:10;}
	.st64{fill:none;stroke:url(#SVGID_00000065762273835050325640000002192082961473900430_);stroke-width:3;stroke-miterlimit:10;}
	.st65{fill:none;stroke:url(#SVGID_00000055697378778549392710000008360921178910640518_);stroke-width:3;stroke-miterlimit:10;}
	.st66{fill:none;stroke:url(#SVGID_00000089535728266478793770000001875721208419070647_);stroke-width:3;stroke-miterlimit:10;}
	.st67{fill:url(#SVGID_00000112628426406666353350000009597062205629391805_);}
	.st68{fill:none;stroke:url(#SVGID_00000133506380383640080950000017261750234507975079_);stroke-width:3;stroke-miterlimit:10;}
	.st69{fill:url(#SVGID_00000164509310018004479740000016005556770672727229_);}
	.st70{fill:url(#SVGID_00000061438823699896637350000018169635207679042443_);}
	.st71{fill:url(#SVGID_00000147221297054496664090000010906177726494842019_);}
	.st72{fill:url(#SVGID_00000073706533191072012030000017447520964352445332_);}
	.st73{fill:url(#SVGID_00000156554201773967809420000006956314125028255886_);}
	.st74{fill:url(#SVGID_00000111899549062798189060000001969007867235215765_);}
	.st75{fill:url(#SVGID_00000039815438889523992240000017898254075737240764_);}
	.st76{fill:url(#SVGID_00000182503531424541530240000016161383674813989823_);}
	.st77{fill:url(#SVGID_00000125563949620701912310000001770242172573115284_);}
	.st78{fill:url(#SVGID_00000009552560259669154020000012328497051200895119_);}
	.st79{fill:url(#SVGID_00000173161288838542254550000005521905439019213451_);}
	.st80{fill:url(#SVGID_00000098926310824501776030000012116258570307883686_);}
	.st81{fill:url(#SVGID_00000146473386000369784340000015765531227063907456_);}
	.st82{fill:url(#SVGID_00000079460251299737628080000002677606998245101466_);}
	.st83{fill:url(#SVGID_00000011754099022476348920000001350604924737939381_);}
	.st84{fill:url(#SVGID_00000174585149812502448060000014833336332816804532_);}
	.st85{fill:url(#SVGID_00000062888425512510401470000006177799822521093262_);}
	.st86{fill:url(#SVGID_00000149374374620716378240000001106096974505867662_);}
	.st87{fill:url(#SVGID_00000144331167955810239390000005544836523034151820_);}
	.st88{fill:url(#SVGID_00000149339767062440843150000016741992406063033761_);}
	.st89{fill:url(#SVGID_00000111911608939124337160000016765210773350576515_);}
	.st90{fill:url(#SVGID_00000038403869839880801480000009884627945040090813_);}
	.st91{fill:url(#SVGID_00000009576559846349742850000011236262599783768206_);}
	.st92{fill:url(#SVGID_00000030447953391552687040000006854963097347057335_);}
	.st93{fill:url(#SVGID_00000083792182025513399900000011227198201716971405_);}
	.st94{fill:url(#SVGID_00000040553642483207970310000008862786114296874633_);}
	.st95{fill:url(#SVGID_00000066487065697911673830000006290242282645551010_);}
	.st96{fill:url(#SVGID_00000062168196184927945320000010025836643615334578_);}
	.st97{fill:url(#SVGID_00000111151477012924840970000004246792875761168568_);}
	.st98{fill:url(#SVGID_00000159465305398673629160000012091645458514999465_);}
	.st99{fill:url(#SVGID_00000155858538154515397900000004879994137673740213_);}
	.st100{fill:url(#SVGID_00000142868712423510948240000016730994459112340402_);}
	.st101{fill:url(#SVGID_00000171690189014618932460000011141818809800477624_);}
	.st102{fill:none;stroke:url(#SVGID_00000006677913339625190210000001857613576050248323_);stroke-miterlimit:10;}
	.st103{fill:none;stroke:url(#SVGID_00000103971058342295384460000015001864035243170185_);stroke-miterlimit:10;}
	.st104{fill:none;stroke:url(#SVGID_00000000183897562830062670000007274627872261160109_);stroke-width:3;stroke-miterlimit:10;}
	.st105{fill:none;stroke:url(#SVGID_00000109012850513538891250000011901861759520589451_);stroke-width:3;stroke-miterlimit:10;}
	.st106{fill:none;stroke:url(#SVGID_00000109728887837205829700000003219900286678918050_);stroke-width:3;stroke-miterlimit:10;}
	.st107{fill:url(#SVGID_00000133528340686542989310000006029084854008441760_);}
	.st108{fill:none;stroke:url(#SVGID_00000124162868505397917290000006397043814868340149_);stroke-width:3;stroke-miterlimit:10;}
	.st109{fill:url(#SVGID_00000179615102252419970040000011932024367343736212_);}
	.st110{fill:url(#SVGID_00000005961275389708708440000005834461309927750587_);}
	.st111{fill:url(#SVGID_00000015312587634805000620000002559927282766053282_);}
	.st112{fill:url(#SVGID_00000008149012372519473060000007477583246194202797_);}
	.st113{fill:url(#SVGID_00000156571496670626826020000006864127653689337740_);}
	.st114{fill:url(#SVGID_00000086663706056689696990000009551433725346211761_);}
	.st115{fill:url(#SVGID_00000129205303339027905810000010672725485939329701_);}
	.st116{fill:url(#SVGID_00000140736211559445575350000012160818042685601435_);}
	.st117{fill:url(#SVGID_00000001624655658915453850000011570087821662442129_);}
	.st118{fill:url(#SVGID_00000036972009742559880610000006214251866588809348_);}
	.st119{fill:url(#SVGID_00000042002537536235888510000001053039432464083342_);}
	.st120{fill:url(#SVGID_00000101067201640677900150000009707364122295692959_);}
	.st121{fill:url(#SVGID_00000150801741667942976570000004454114593902107015_);}
	.st122{fill:url(#SVGID_00000122720559005300403220000006010369369606234243_);}
	.st123{fill:url(#SVGID_00000065038346550346828050000000588817217907305392_);}
	.st124{fill:url(#SVGID_00000085942276896877136230000009143448634503033754_);}
	.st125{fill:url(#SVGID_00000006697954624995652520000015958574936260522672_);}
	.st126{fill:#FFFFFF;}
	.st127{fill:url(#SVGID_00000062163357307483702030000011276018833910552992_);}
	.st128{fill:url(#SVGID_00000016772616588082580590000010781371737653543358_);}
	.st129{fill:url(#SVGID_00000085968563132875709760000003477430837307175586_);}
	.st130{fill:url(#SVGID_00000054949496815011759030000004409058304466292408_);}
	.st131{fill:url(#SVGID_00000026154182685214767620000001236368547856028839_);}
	.st132{fill:url(#SVGID_00000173129151535623209030000012655141524466786990_);}
	.st133{fill:url(#SVGID_00000119077514932329261990000009346007631466644658_);}
	.st134{fill:url(#SVGID_00000120542194298261664760000008708094549529336472_);}
	.st135{fill:url(#SVGID_00000098904103502570526850000013273072997371295673_);}
	.st136{fill:url(#SVGID_00000003089329090248110760000013744749305799788959_);}
	.st137{fill:url(#SVGID_00000166654790274817319900000003354045199130231949_);}
	.st138{fill:url(#SVGID_00000093161820950507880920000012830933225978694026_);}
	.st139{fill:url(#SVGID_00000088833908447728558820000005872081325282080167_);}
	.st140{fill:url(#SVGID_00000125581511282119092290000013040643961538235530_);}
	.st141{fill:url(#SVGID_00000002376000948304960010000011020064079215559100_);}
	.st142{fill:url(#SVGID_00000066490635508694746960000018107827973158801076_);}
	.st143{fill:none;stroke:url(#SVGID_00000037676176751379635050000015829208484370441127_);stroke-miterlimit:10;}
	.st144{fill:none;stroke:url(#SVGID_00000068639375812841086300000016211220130775891902_);stroke-miterlimit:10;}
	.st145{stroke:url(#SVGID_00000112606122270193236820000010841411810856690075_);stroke-width:3;stroke-miterlimit:10;}
	
		.st146{fill:#020202;stroke:url(#SVGID_00000026848839954550192330000012365988705153479577_);stroke-width:3;stroke-miterlimit:10;}
	.st147{stroke:url(#SVGID_00000065063672419315650140000013444453835949680309_);stroke-width:3;stroke-miterlimit:10;}
	.st148{fill:url(#SVGID_00000049942693741224085940000005969694180193293481_);}
	
		.st149{fill:#020202;stroke:url(#SVGID_00000019655434879106917510000001707126444715625919_);stroke-width:3;stroke-miterlimit:10;}
	.st150{fill:url(#SVGID_00000176756525510816335100000011047093301004801972_);}
	.st151{fill:url(#SVGID_00000056417686688540597500000011495590950329677459_);}
	.st152{fill:url(#SVGID_00000030473502098827496410000009117102943875238328_);}
	.st153{fill:url(#SVGID_00000069370987708902474010000010440486809237447348_);}
	.st154{fill:url(#SVGID_00000173141648533867749020000004931355719974074539_);}
	.st155{fill:url(#SVGID_00000070104333043417195900000000128051307874214559_);}
	.st156{fill:url(#SVGID_00000036249502094972050450000008608348945583109262_);}
	.st157{fill:url(#SVGID_00000150083509368784496400000017341215393262621096_);}
	.st158{fill:url(#SVGID_00000168083646142175834260000009236061132230912955_);}
	.st159{fill:url(#SVGID_00000070827949226598933010000000997297727711276719_);}
	.st160{fill:url(#SVGID_00000043436352632603298770000008254082660424290711_);}
	.st161{fill:url(#SVGID_00000176007936747642659740000000811455071118681511_);}
	.st162{fill:url(#SVGID_00000023277103276659017540000006439345566412241811_);}
	.st163{fill:url(#SVGID_00000150089019411515927330000012864503293844515728_);}
	.st164{fill:url(#SVGID_00000135675868652712021900000004815864062883107210_);}
	.st165{fill:url(#SVGID_00000172410190393814482380000003413675071784267672_);}
	.st166{fill:url(#SVGID_00000053522068595893357170000017227098210335824007_);}
	.st167{fill:#895606;}
	.st168{fill:url(#SVGID_00000079476050920380566340000010472397309423866242_);}
	.st169{fill:none;stroke:url(#SVGID_00000103248918268440270300000013457765722277208482_);stroke-miterlimit:10;}
	.st170{fill:none;stroke:url(#SVGID_00000050635808318886179800000003089772994976970142_);stroke-miterlimit:10;}
	.st171{stroke:url(#SVGID_00000082331919502208670980000009060945802914957714_);stroke-width:3;stroke-miterlimit:10;}
	
		.st172{fill:#020202;stroke:url(#SVGID_00000039105232768753612920000012525965882917178514_);stroke-width:3;stroke-miterlimit:10;}
	.st173{stroke:url(#SVGID_00000177476571269246072560000005563128473252100505_);stroke-width:3;stroke-miterlimit:10;}
	.st174{fill:url(#SVGID_00000145746464288517788480000016576293479646567552_);}
	
		.st175{fill:#020202;stroke:url(#SVGID_00000138533383662145636210000006126202525947101357_);stroke-width:3;stroke-miterlimit:10;}
	.st176{fill:url(#SVGID_00000010990720690106737310000004332718122986061468_);}
	.st177{fill:url(#SVGID_00000091725291048569392280000001404386189059302807_);}
	.st178{fill:url(#SVGID_00000000945668641449860780000001125453296446926754_);}
	.st179{fill:url(#SVGID_00000044139339191268697740000006420880184066680452_);}
	.st180{fill:url(#SVGID_00000064314215483638427110000016916441148252781757_);}
	.st181{fill:url(#SVGID_00000093865932701948795380000009324171093764973480_);}
	.st182{fill:url(#SVGID_00000098908788429379318330000004691147650675442607_);}
	.st183{fill:url(#SVGID_00000165198136373114928360000017819376670198212541_);}
	.st184{fill:url(#SVGID_00000056386775792368575640000005942013956647396758_);}
	.st185{fill:url(#SVGID_00000008118888602239542920000013243460325663844280_);}
	.st186{fill:url(#SVGID_00000157278657812846064070000005526251302674551220_);}
	.st187{fill:url(#SVGID_00000183939166928761936270000016520793178514053802_);}
	.st188{fill:url(#SVGID_00000119087592956252744340000007862278344922557324_);}
	.st189{fill:url(#SVGID_00000050656886601879069200000010529857671193631407_);}
	.st190{fill:url(#SVGID_00000174560669351268206440000001037566867943247002_);}
	.st191{fill:url(#SVGID_00000136387175086651189930000003889433422093539212_);}
	.st192{fill:url(#SVGID_00000134948801256994161230000010387798187123591326_);}
</style>
<path d="M355.4,391c0,0-20.6-5.7-29.7-9.4c-9.1-3.8-13.1-6.1-18.6,3c-2.4,4-9.2,3.2-15.9,4.6c-6.8,1.4-46.2-0.6-55.7,60.1
	c0,0-51-24.5-64.8-78.9s24.4-101.2,24.4-101.2l-32.4-12.9l20.5-12.2c0,0-44.2,2.8-75.3-22.6c0,0,50.3-5.7,72-8.2
	c32.1-3.8,19.1-16.5,69.9-35.2c46.9-17.3,87.5-8.1,105.5,9.9"/>
<g>
	<g>
		
			<linearGradient id="SVGID_1_" gradientUnits="userSpaceOnUse" x1="519.4064" y1="734.8348" x2="559.9122" y2="734.8348" gradientTransform="matrix(1 0 0 -1 0 881.8898)">
			<stop  offset="0" style="stop-color:#909090"/>
			<stop  offset="1" style="stop-color:#E0E1E5"/>
		</linearGradient>
		<path style="fill:url(#SVGID_1_);" d="M519.4,234.7c0,0,0-80.8,0-106.7s38.1-73.4,38.1-73.4s2.6,13.2,2.3,23.3s-0.5,20.5-9.2,31.3
			s-9.2,16.7-9.2,29.6c0,12.9,0,100.7,0,100.7l-18.1-1.2L519.4,234.7z"/>
		
			<linearGradient id="SVGID_00000038383943939669010680000016978958135971507099_" gradientUnits="userSpaceOnUse" x1="447.1665" y1="683.7748" x2="480.6465" y2="683.7748" gradientTransform="matrix(1 0 0 -1 0 881.8898)">
			<stop  offset="0" style="stop-color:#B77F34"/>
			<stop  offset="0.2151" style="stop-color:#FAF29F"/>
			<stop  offset="0.4441" style="stop-color:#FAE27E"/>
			<stop  offset="0.7402" style="stop-color:#FCF19F"/>
			<stop  offset="1" style="stop-color:#B4802C"/>
		</linearGradient>
		
			<circle style="fill:none;stroke:url(#SVGID_00000038383943939669010680000016978958135971507099_);stroke-miterlimit:10;" cx="463.9" cy="198.1" r="16.2"/>
		
			<linearGradient id="SVGID_00000146477930965613927130000003975363531430978720_" gradientUnits="userSpaceOnUse" x1="363.9604" y1="689.5251" x2="380.1865" y2="689.5251" gradientTransform="matrix(1 0 0 -1 0 881.8898)">
			<stop  offset="0" style="stop-color:#B77F34"/>
			<stop  offset="0.2151" style="stop-color:#FAF29F"/>
			<stop  offset="0.4441" style="stop-color:#FAE27E"/>
			<stop  offset="0.7402" style="stop-color:#FCF19F"/>
			<stop  offset="1" style="stop-color:#B4802C"/>
		</linearGradient>
		<path style="fill:none;stroke:url(#SVGID_00000146477930965613927130000003975363531430978720_);stroke-miterlimit:10;" d="
			M364,176.1c8.7,0.3,15.7,7.4,15.7,16.2c0,8.7-6.8,15.8-15.4,16.2"/>
		
			<linearGradient id="SVGID_00000123433021294532353670000002838808546530683048_" gradientUnits="userSpaceOnUse" x1="63.6855" y1="498.6699" x2="355.4165" y2="498.6699" gradientTransform="matrix(1 0 0 -1 0 881.8898)">
			<stop  offset="0" style="stop-color:#B77F34"/>
			<stop  offset="0.2151" style="stop-color:#FAF29F"/>
			<stop  offset="0.4441" style="stop-color:#FAE27E"/>
			<stop  offset="0.7402" style="stop-color:#FCF19F"/>
			<stop  offset="1" style="stop-color:#B4802C"/>
		</linearGradient>
		<path style="stroke:url(#SVGID_00000123433021294532353670000002838808546530683048_);stroke-width:3;stroke-miterlimit:10;" d="
			M106.5,222.2c0,0,50.3-5.7,72-8.2c32.1-3.8,19.1-16.5,69.9-35.2c46.9-17.3,87.5-8.1,105.5,9.9v-44.5c0,0-50.8-3-86.1,0.7
			c-34.5,3.6-47.3,12-72,26.1s-42.9,16.8-75.2,15.4c-32.3-1.4-54.9-9.4-55.4,34.8s18.2,76,39.6,95.1s31.8,15.3,31.5,38.1
			c-0.2,22.8,2.1,55.3,45.6,98.8s70.4,72.7,74.4,97.9c4,25.2,4.9,68.5,97.5,72.2v-33.1c0,0-13.8,2.8-25.8-8.2
			c-4.5-4-6.8-3.4-10.4-3.1s-27.8-2.2-31.2-40.5c0,0,15.5,20.8,31.8,18.3c16.2-2.5,35.5-4.5,35.5-4.5v-10.7c0,0-37.6-0.5-43.1-1.2
			s-6-5.5-7.1-11.8c-0.8-4.5-2.1-13.7-2.7-18.5c-0.2-1.7,1-3.2,2.7-3.2l0,0c1,0,2,0.5,2.5,1.5c2.2,4,9.8,15,27.4,17.3
			c16.2,2.1,20.2,1.5,20.2,1.5V391.9c0,0-20.6-5.6-29.6-9.4s-13.1-6.1-18.6,3c-2.5,4-9.2,3.2-15.9,4.6c-6.8,1.4-46.2-0.6-55.7,60.1
			c0,0-51-24.5-64.8-78.9C155.6,316.8,193.7,270,193.7,270l-32.4-12.9l20.5-12.2C181.8,244.8,137.5,247.6,106.5,222.2z"/>
		
			<linearGradient id="SVGID_00000075874016818046795910000015301967824131571352_" gradientUnits="userSpaceOnUse" x1="95.8275" y1="615.7281" x2="165.0961" y2="615.7281" gradientTransform="matrix(1 0 0 -1 0 881.8898)">
			<stop  offset="0" style="stop-color:#B77F34"/>
			<stop  offset="0.2151" style="stop-color:#FAF29F"/>
			<stop  offset="0.4441" style="stop-color:#FAE27E"/>
			<stop  offset="0.7402" style="stop-color:#FCF19F"/>
			<stop  offset="1" style="stop-color:#B4802C"/>
		</linearGradient>
		
			<path style="fill:#020202;stroke:url(#SVGID_00000075874016818046795910000015301967824131571352_);stroke-width:3;stroke-miterlimit:10;" d="
			M97.4,230.9l38.3,32.7L128,270l35.1,20.9c0,0-4.7,8.6-6.6,11.5C153.3,307.4,99.3,289.1,97.4,230.9z"/>
		
			<linearGradient id="SVGID_00000164475862763139902520000017212821741483688095_" gradientUnits="userSpaceOnUse" x1="215.6948" y1="569.3778" x2="324.572" y2="569.3778" gradientTransform="matrix(1 0 0 -1 0 881.8898)">
			<stop  offset="0" style="stop-color:#B77F34"/>
			<stop  offset="0.2151" style="stop-color:#FAF29F"/>
			<stop  offset="0.4441" style="stop-color:#FAE27E"/>
			<stop  offset="0.7402" style="stop-color:#FCF19F"/>
			<stop  offset="1" style="stop-color:#B4802C"/>
		</linearGradient>
		<path style="stroke:url(#SVGID_00000164475862763139902520000017212821741483688095_);stroke-width:3;stroke-miterlimit:10;" d="
			M232.7,276.8c0,0,1.9,5.5,0.7,16.6c-1.2,11.1-2.6,37.1,18.9,46.8c21.5,9.7,41.1,3.5,48.7,0.9c-1.2,10.6-2.1,19.1-2.1,19.1
			s22.9-20.3,24.2-42s-23.3-35.5-23.3-35.5s10.1,21.5,11.1,25.8c1.1,4.2,1.2,11.5-10.9,5.5c-5-2.5-15.7-10-26.8-19.8
			c-16.1-14.1-32.7-31.2-48.2-31.2c-9.4,0-7.6,14.8-7.6,14.8L232.7,276.8z"/>
		
			<radialGradient id="SVGID_00000029723923861335601670000013283322270170247338_" cx="269.0029" cy="568.8262" r="19.104" gradientTransform="matrix(1 0 0 -1 0 881.8898)" gradientUnits="userSpaceOnUse">
			<stop  offset="0" style="stop-color:#469A44"/>
			<stop  offset="1" style="stop-color:#82C63F"/>
		</radialGradient>
		<path style="fill:url(#SVGID_00000029723923861335601670000013283322270170247338_);" d="M252.4,293.9c0,0-6.9,24,2.8,32.4
			c9.8,8.4,24.7,6,27.9,4.7s5.1-7.8,4.9-10.4l-19,1.4c0,0,3.5-12.7-0.9-16.9C263.8,300.8,252.4,293.9,252.4,293.9z"/>
		
			<linearGradient id="SVGID_00000008860884134407746430000010855096590528890779_" gradientUnits="userSpaceOnUse" x1="256.6153" y1="437.8481" x2="348.3649" y2="437.8481" gradientTransform="matrix(1 0 0 -1 0 881.8898)">
			<stop  offset="0" style="stop-color:#B77F34"/>
			<stop  offset="0.2151" style="stop-color:#FAF29F"/>
			<stop  offset="0.4441" style="stop-color:#FAE27E"/>
			<stop  offset="0.7402" style="stop-color:#FCF19F"/>
			<stop  offset="1" style="stop-color:#B4802C"/>
		</linearGradient>
		
			<path style="fill:#020202;stroke:url(#SVGID_00000008860884134407746430000010855096590528890779_);stroke-width:3;stroke-miterlimit:10;" d="
			M261.8,419.6l23.6,14.6c0.6,0.4,0.2,1.2-0.5,1.1l-25.1-5.8c-0.4-0.1-0.7,0.2-0.7,0.5l-1,18.2c0,0.3,0.2,0.6,0.5,0.6l29.8,2.9
			c0.7,0.1,0.7,1,0.1,1.2l-29.6,5.9c-0.4,0.1-0.6,0.6-0.4,0.9c1.6,2.2,6.7,8.9,12.4,10.4c4.9,1.2,13.6-1,18.4-2.5
			c0.6-0.2,1.1,0.6,0.5,1l-14.6,11.5c0,0,25.3,16.2,50.4,1.1s24.2-18.6,16.2-31.4c-6.9-11.2-19.1-32.4-22.1-37.6
			c-0.3-0.5-0.9-0.4-1.1,0.1l-3.4,10.9c-0.1,0.5-0.8,0.6-1.1,0.1l-14.4-22.9c-0.2-0.3-0.5-0.4-0.8-0.2l-37.2,18.2
			C261.5,418.7,261.4,419.3,261.8,419.6z"/>
		<g>
			
				<linearGradient id="SVGID_00000073003313033644650060000007003235470003613861_" gradientUnits="userSpaceOnUse" x1="635.1255" y1="463.667" x2="289.2431" y2="513.0789" gradientTransform="matrix(1 0 0 -1 0 881.8898)">
				<stop  offset="0" style="stop-color:#B77F34"/>
				<stop  offset="0.2151" style="stop-color:#FAF29F"/>
				<stop  offset="0.4441" style="stop-color:#FAE27E"/>
				<stop  offset="0.7402" style="stop-color:#FCF19F"/>
				<stop  offset="1" style="stop-color:#B4802C"/>
			</linearGradient>
			<path style="fill:url(#SVGID_00000073003313033644650060000007003235470003613861_);" d="M638.9,517.8c0,0-2.3-29.8-8.5-61.4
				c-6.2-31.6-20.5-48.4-36.2-48.5c-13.9-0.1-64.8-4.9-64.8-4.9l-0.2-8l44.5,3.1c0,0,0-63.9,0-79.2c0-15.3-43.9-14-43.9-14
				l45.1-22.4L560.3,296c0,0,3.2,8.2,9.4,8.2h13c6.7,0,9.5-2.6,9.5-9.5v-59.2c0-6.5-2.4-11.4-7.8-11.4h-15.7c-5.3,0-9.2,3.8-9.2,8.4
				c0,4.6,0,6.8,0,6.8c-34.3-1.2-50.6-7.5-50.6-7.5c-4.5-64.9-2.6-70.4-7.5-74.1c-24.9-19-136.2-16.2-136.2-16.2h-1.2l0.5,30.6
				c7.2,0,21.2,5.6,21.1,18.6c-0.1,13.1-7.1,17.3-12.4,20.1c-5.3,2.8-3.8,8.6-3.8,8.6l37.1,1.3c0,0,1.4-7.3,10.1-7.3
				c8.7,0,11.3,8.8,11.3,8.8s42.2,2.8,51.8,2.6c9.5-0.2,11.3,3.2,11.5,13.4c0.2,10.2,2.5,69,2.5,69s12.7,9.5,12.7,26.5
				s0,182.6,0,182.6H363.9v43.9h50.4c3.6,0,6.5,2.9,6.5,6.5v17.4c0,3.6-2.9,6.5-6.5,6.5h-50.4v36.3h284.5V517.8H638.9z M463.9,218.5
				c-11.3,0-20.4-9.1-20.4-20.4c0-11.3,9.1-20.4,20.4-20.4s20.4,9.1,20.4,20.4C484.3,209.4,475.2,218.5,463.9,218.5z M561.6,478.3
				h-30c-2.9,0-5.3-2.4-5.3-5.3v-15.8c0-2.9,2.4-5.3,5.3-5.3h30V478.3z M597.7,478.3h-30V452h30c2.9,0,5.3,2.4,5.3,5.3v15.8
				C603,476,600.6,478.3,597.7,478.3z"/>
			
				<linearGradient id="SVGID_00000041999014880427747070000012931831525151872189_" gradientUnits="userSpaceOnUse" x1="366.9665" y1="614.1348" x2="484.3165" y2="614.1348" gradientTransform="matrix(1 0 0 -1 0 881.8898)">
				<stop  offset="0" style="stop-color:#B77F34"/>
				<stop  offset="0.2151" style="stop-color:#FAF29F"/>
				<stop  offset="0.4441" style="stop-color:#FAE27E"/>
				<stop  offset="0.7402" style="stop-color:#FCF19F"/>
				<stop  offset="1" style="stop-color:#B4802C"/>
			</linearGradient>
			<polygon style="fill:url(#SVGID_00000041999014880427747070000012931831525151872189_);" points="367,228.8 367,290.5 
				484.3,306.8 482.7,233.2 			"/>
			
				<linearGradient id="SVGID_00000146471837370217460450000008090619226390219917_" gradientUnits="userSpaceOnUse" x1="364.6065" y1="530.4448" x2="422.7265" y2="530.4448" gradientTransform="matrix(1 0 0 -1 0 881.8898)">
				<stop  offset="0" style="stop-color:#B77F34"/>
				<stop  offset="0.2151" style="stop-color:#FAF29F"/>
				<stop  offset="0.4441" style="stop-color:#FAE27E"/>
				<stop  offset="0.7402" style="stop-color:#FCF19F"/>
				<stop  offset="1" style="stop-color:#B4802C"/>
			</linearGradient>
			<path style="fill:url(#SVGID_00000146471837370217460450000008090619226390219917_);" d="M419.6,356.3h-51.9
				c-1.7,0-3.1-1.4-3.1-3.1v-3.4c0-1.7,1.4-3.1,3.1-3.1h51.9c1.7,0,3.1,1.4,3.1,3.1v3.4C422.7,354.9,421.3,356.3,419.6,356.3z"/>
			
				<linearGradient id="SVGID_00000170270249759910365470000013582070809880042681_" gradientUnits="userSpaceOnUse" x1="364.6065" y1="512.1748" x2="422.7265" y2="512.1748" gradientTransform="matrix(1 0 0 -1 0 881.8898)">
				<stop  offset="0" style="stop-color:#B77F34"/>
				<stop  offset="0.2151" style="stop-color:#FAF29F"/>
				<stop  offset="0.4441" style="stop-color:#FAE27E"/>
				<stop  offset="0.7402" style="stop-color:#FCF19F"/>
				<stop  offset="1" style="stop-color:#B4802C"/>
			</linearGradient>
			<path style="fill:url(#SVGID_00000170270249759910365470000013582070809880042681_);" d="M419.6,374.5h-51.9
				c-1.7,0-3.1-1.4-3.1-3.1V368c0-1.7,1.4-3.1,3.1-3.1h51.9c1.7,0,3.1,1.4,3.1,3.1v3.4C422.7,373.1,421.3,374.5,419.6,374.5z"/>
			
				<linearGradient id="SVGID_00000027585025526519737620000002582232839535092359_" gradientUnits="userSpaceOnUse" x1="371.0165" y1="493.9048" x2="422.7265" y2="493.9048" gradientTransform="matrix(1 0 0 -1 0 881.8898)">
				<stop  offset="0" style="stop-color:#B77F34"/>
				<stop  offset="0.2151" style="stop-color:#FAF29F"/>
				<stop  offset="0.4441" style="stop-color:#FAE27E"/>
				<stop  offset="0.7402" style="stop-color:#FCF19F"/>
				<stop  offset="1" style="stop-color:#B4802C"/>
			</linearGradient>
			<path style="fill:url(#SVGID_00000027585025526519737620000002582232839535092359_);" d="M422.7,386.3v3.4c0,1.7-1.4,3.1-3.1,3.1
				h-21l-1.7-1.2c-1-0.7-9.1-6.2-25.9-8.4h48.6C421.3,383.2,422.7,384.6,422.7,386.3z"/>
			
				<linearGradient id="SVGID_00000140736722937247618490000015684141143421061304_" gradientUnits="userSpaceOnUse" x1="377.2965" y1="475.6448" x2="422.7265" y2="475.6448" gradientTransform="matrix(1 0 0 -1 0 881.8898)">
				<stop  offset="0" style="stop-color:#B77F34"/>
				<stop  offset="0.2151" style="stop-color:#FAF29F"/>
				<stop  offset="0.4441" style="stop-color:#FAE27E"/>
				<stop  offset="0.7402" style="stop-color:#FCF19F"/>
				<stop  offset="1" style="stop-color:#B4802C"/>
			</linearGradient>
			<path style="fill:url(#SVGID_00000140736722937247618490000015684141143421061304_);" d="M422.7,404.5v3.4c0,1.7-1.4,3.1-3.1,3.1
				h-42.3c6.4-1.2,13.6-3.6,19.8-8.2l1.8-1.4h20.8C421.3,401.4,422.7,402.8,422.7,404.5z"/>
			
				<linearGradient id="SVGID_00000083799677907321478370000014553387722412144825_" gradientUnits="userSpaceOnUse" x1="364.6065" y1="457.3849" x2="422.7265" y2="457.3849" gradientTransform="matrix(1 0 0 -1 0 881.8898)">
				<stop  offset="0" style="stop-color:#B77F34"/>
				<stop  offset="0.2151" style="stop-color:#FAF29F"/>
				<stop  offset="0.4441" style="stop-color:#FAE27E"/>
				<stop  offset="0.7402" style="stop-color:#FCF19F"/>
				<stop  offset="1" style="stop-color:#B4802C"/>
			</linearGradient>
			<path style="fill:url(#SVGID_00000083799677907321478370000014553387722412144825_);" d="M419.6,429.3h-51.9
				c-1.7,0-3.1-1.4-3.1-3.1v-3.4c0-1.7,1.4-3.1,3.1-3.1h51.9c1.7,0,3.1,1.4,3.1,3.1v3.4C422.7,427.9,421.3,429.3,419.6,429.3z"/>
			
				<linearGradient id="SVGID_00000005985588478671903600000004174856818738041224_" gradientUnits="userSpaceOnUse" x1="364.6065" y1="439.1148" x2="422.7265" y2="439.1148" gradientTransform="matrix(1 0 0 -1 0 881.8898)">
				<stop  offset="0" style="stop-color:#B77F34"/>
				<stop  offset="0.2151" style="stop-color:#FAF29F"/>
				<stop  offset="0.4441" style="stop-color:#FAE27E"/>
				<stop  offset="0.7402" style="stop-color:#FCF19F"/>
				<stop  offset="1" style="stop-color:#B4802C"/>
			</linearGradient>
			<path style="fill:url(#SVGID_00000005985588478671903600000004174856818738041224_);" d="M419.6,447.6h-51.9
				c-1.7,0-3.1-1.4-3.1-3.1v-3.4c0-1.7,1.4-3.1,3.1-3.1h51.9c1.7,0,3.1,1.4,3.1,3.1v3.4C422.7,446.2,421.3,447.6,419.6,447.6z"/>
			
				<linearGradient id="SVGID_00000096023534010040640470000009916753788966745488_" gradientUnits="userSpaceOnUse" x1="364.6065" y1="420.8549" x2="422.7265" y2="420.8549" gradientTransform="matrix(1 0 0 -1 0 881.8898)">
				<stop  offset="0" style="stop-color:#B77F34"/>
				<stop  offset="0.2151" style="stop-color:#FAF29F"/>
				<stop  offset="0.4441" style="stop-color:#FAE27E"/>
				<stop  offset="0.7402" style="stop-color:#FCF19F"/>
				<stop  offset="1" style="stop-color:#B4802C"/>
			</linearGradient>
			<path style="fill:url(#SVGID_00000096023534010040640470000009916753788966745488_);" d="M419.6,465.8h-51.9
				c-1.7,0-3.1-1.4-3.1-3.1v-3.4c0-1.7,1.4-3.1,3.1-3.1h51.9c1.7,0,3.1,1.4,3.1,3.1v3.4C422.7,464.5,421.3,465.8,419.6,465.8z"/>
			
				<linearGradient id="SVGID_00000172398588668292599350000007571409408068028056_" gradientUnits="userSpaceOnUse" x1="361.7865" y1="484.6048" x2="392.8465" y2="484.6048" gradientTransform="matrix(1 0 0 -1 0 881.8898)">
				<stop  offset="0" style="stop-color:#B77F34"/>
				<stop  offset="0.2151" style="stop-color:#FAF29F"/>
				<stop  offset="0.4441" style="stop-color:#FAE27E"/>
				<stop  offset="0.7402" style="stop-color:#FCF19F"/>
				<stop  offset="1" style="stop-color:#B4802C"/>
			</linearGradient>
			<path style="fill:url(#SVGID_00000172398588668292599350000007571409408068028056_);" d="M361.8,389.4v15.6
				c0,0,18.6,1.6,31.1-7.8C392.8,397.2,383.3,390.3,361.8,389.4z"/>
			
				<linearGradient id="SVGID_00000081646172869368646820000017226114951754426537_" gradientUnits="userSpaceOnUse" x1="364.6664" y1="472.8048" x2="475.1965" y2="472.8048" gradientTransform="matrix(1 0 0 -1 0 881.8898)">
				<stop  offset="0" style="stop-color:#B77F34"/>
				<stop  offset="0.2151" style="stop-color:#FAF29F"/>
				<stop  offset="0.4441" style="stop-color:#FAE27E"/>
				<stop  offset="0.7402" style="stop-color:#FCF19F"/>
				<stop  offset="1" style="stop-color:#B4802C"/>
			</linearGradient>
			<path style="fill:url(#SVGID_00000081646172869368646820000017226114951754426537_);" d="M475.2,328.2v170.5H364.7v-8.6h60.2v1.9
				c0,1.4,1.1,2.5,2.5,2.5h5.7c1.4,0,2.5-1.1,2.5-2.5v-1.9h35v-8.5h-32.3c-1.4,0-2.5-1.1-2.5-2.5v-5.3c0-1.4,1.1-2.5,2.5-2.5h32.3
				v-9h-32.3c-1.4,0-2.5-1.1-2.5-2.5v-5.3c0-1.4,1.1-2.5,2.5-2.5h32.3v-9h-32.3c-1.4,0-2.5-1.1-2.5-2.5v-5.3c0-1.4,1.1-2.5,2.5-2.5
				h32.3v-9h-32.3c-1.4,0-2.5-1.1-2.5-2.5V416c0-1.4,1.1-2.5,2.5-2.5h32.3v-9h-32.3c-1.4,0-2.5-1.1-2.5-2.5v-5.3
				c0-1.4,1.1-2.5,2.5-2.5h32.3v-9h-32.3c-1.4,0-2.5-1.1-2.5-2.5v-5.3c0-1.4,1.1-2.5,2.5-2.5h32.3v-9h-32.3c-1.4,0-2.5-1.1-2.5-2.5
				v-5.3c0-1.4,1.1-2.5,2.5-2.5h32.3v-8.6h-32.3c-1.4,0-2.5-1.1-2.5-2.5v-5.3c0-1.4,1.1-2.5,2.5-2.5h32.8v-4.6
				c0,0-22.6-2.5-30.5-3.7c-7.9-1.2-5.3-5.5-5.3-5.5l-8.8,0.2c0,0-2.1,2.1-3.7,6v8.3l-58.1-1.1l0.7-16.9h70.9L475.2,328.2z"/>
		</g>
	</g>
	<g>
		<g>
			<g>
				
					<linearGradient id="SVGID_00000158751242752252119560000011876105969033948289_" gradientUnits="userSpaceOnUse" x1="58.116" y1="156.4548" x2="655.5125" y2="156.4548" gradientTransform="matrix(1 0 0 -1 0 881.8898)">
					<stop  offset="0" style="stop-color:#B77F34"/>
					<stop  offset="0.2151" style="stop-color:#FAF29F"/>
					<stop  offset="0.4441" style="stop-color:#FAE27E"/>
					<stop  offset="0.7402" style="stop-color:#FCF19F"/>
					<stop  offset="1" style="stop-color:#B4802C"/>
				</linearGradient>
				<path style="fill:url(#SVGID_00000158751242752252119560000011876105969033948289_);" d="M105.8,768.3
					c-4.2,4.2-10.8,6.4-19.6,6.4c-8.8,0-18.2-0.5-28.1-1.4v-18.7c7.2,0.5,14.6,0.7,22.2,0.7c2.1,0,3.8-0.6,5.1-1.9s1.9-2.9,1.9-5.1
					v-52.7h-18v-19.4h43v72.1C112.2,757.4,110,764,105.8,768.3z"/>
				
					<linearGradient id="SVGID_00000096056333446191431260000016495638681922598313_" gradientUnits="userSpaceOnUse" x1="58.1108" y1="157.1498" x2="655.5073" y2="157.1498" gradientTransform="matrix(1 0 0 -1 0 881.8898)">
					<stop  offset="0" style="stop-color:#B77F34"/>
					<stop  offset="0.2151" style="stop-color:#FAF29F"/>
					<stop  offset="0.4441" style="stop-color:#FAE27E"/>
					<stop  offset="0.7402" style="stop-color:#FCF19F"/>
					<stop  offset="1" style="stop-color:#B4802C"/>
				</linearGradient>
				<path style="fill:url(#SVGID_00000096056333446191431260000016495638681922598313_);" d="M154.4,773.3h-27l36.7-97h27.7l36.7,97
					h-27l-6.2-17.3h-34.6L154.4,773.3z M166.9,737.9h22.2L178,705.3L166.9,737.9z"/>
				
					<linearGradient id="SVGID_00000073720382692544263570000017827914132703378366_" gradientUnits="userSpaceOnUse" x1="58.1108" y1="156.4499" x2="655.5073" y2="156.4499" gradientTransform="matrix(1 0 0 -1 0 881.8898)">
					<stop  offset="0" style="stop-color:#B77F34"/>
					<stop  offset="0.2151" style="stop-color:#FAF29F"/>
					<stop  offset="0.4441" style="stop-color:#FAE27E"/>
					<stop  offset="0.7402" style="stop-color:#FCF19F"/>
					<stop  offset="1" style="stop-color:#B4802C"/>
				</linearGradient>
				<path style="fill:url(#SVGID_00000073720382692544263570000017827914132703378366_);" d="M327,771.2
					c-21.6,2.3-41.5,3.5-59.6,3.5c-9.1,0-15.7-2.1-20-6.4c-4.2-4.2-6.4-10.9-6.4-20V704c0-9.7,2.2-16.8,6.6-21.1s11.4-6.6,21.1-6.6
					h49.9v19.4h-44.4c-5.5,0-8.3,2.8-8.3,8.3v44.3c0,2.1,0.6,3.8,1.9,5.1s2.9,1.9,5.1,1.9c10.6,0,20.3-0.2,29.1-0.7v-20.1h-18v-16.6
					h43V771.2z"/>
				
					<linearGradient id="SVGID_00000013182000195855348270000015748470237673997484_" gradientUnits="userSpaceOnUse" x1="58.1108" y1="156.4499" x2="655.5073" y2="156.4499" gradientTransform="matrix(1 0 0 -1 0 881.8898)">
					<stop  offset="0" style="stop-color:#B77F34"/>
					<stop  offset="0.2151" style="stop-color:#FAF29F"/>
					<stop  offset="0.4441" style="stop-color:#FAE27E"/>
					<stop  offset="0.7402" style="stop-color:#FCF19F"/>
					<stop  offset="1" style="stop-color:#B4802C"/>
				</linearGradient>
				<path style="fill:url(#SVGID_00000013182000195855348270000015748470237673997484_);" d="M411.6,676.2h25v70.7
					c0,9.7-2.2,16.8-6.6,21.1c-4.4,4.4-11.4,6.6-21.1,6.6h-31.9c-9.7,0-16.8-2.2-21.1-6.6s-6.6-11.4-6.6-21.1v-70.7h25v70.7
					c0,5.5,2.8,8.3,8.3,8.3h20.8c5.5,0,8.3-2.8,8.3-8.3L411.6,676.2L411.6,676.2z"/>
				
					<linearGradient id="SVGID_00000142855113555181715390000000313174639236822966_" gradientUnits="userSpaceOnUse" x1="58.1108" y1="157.1498" x2="655.5073" y2="157.1498" gradientTransform="matrix(1 0 0 -1 0 881.8898)">
					<stop  offset="0" style="stop-color:#B77F34"/>
					<stop  offset="0.2151" style="stop-color:#FAF29F"/>
					<stop  offset="0.4441" style="stop-color:#FAE27E"/>
					<stop  offset="0.7402" style="stop-color:#FCF19F"/>
					<stop  offset="1" style="stop-color:#B4802C"/>
				</linearGradient>
				<path style="fill:url(#SVGID_00000142855113555181715390000000313174639236822966_);" d="M478.8,773.3h-27l36.7-97h27.7l36.7,97
					h-27l-6.2-17.3H485L478.8,773.3z M491.3,737.9h22.2l-11.1-32.6L491.3,737.9z"/>
				
					<linearGradient id="SVGID_00000136370890049274804730000016585058610397597877_" gradientUnits="userSpaceOnUse" x1="58.1108" y1="157.1449" x2="655.5073" y2="157.1449" gradientTransform="matrix(1 0 0 -1 0 881.8898)">
					<stop  offset="0" style="stop-color:#B77F34"/>
					<stop  offset="0.2151" style="stop-color:#FAF29F"/>
					<stop  offset="0.4441" style="stop-color:#FAE27E"/>
					<stop  offset="0.7402" style="stop-color:#FCF19F"/>
					<stop  offset="1" style="stop-color:#B4802C"/>
				</linearGradient>
				<path style="fill:url(#SVGID_00000136370890049274804730000016585058610397597877_);" d="M568.2,676.2h58.2
					c9.7,0,16.8,2.2,21.1,6.6c4.4,4.4,6.6,11.4,6.6,21.1v12.5c0,7.7-1.3,13.6-3.8,17.9s-6.6,7.1-12.1,8.5l17.3,30.5h-27l-15.9-29.1
					h-19.4v29.1h-25L568.2,676.2L568.2,676.2z M629.2,704c0-5.5-2.8-8.3-8.3-8.3h-27.7v29.1h27.7c5.5,0,8.3-2.8,8.3-8.3V704z"/>
			</g>
		</g>
		<g>
			<path class="st167" d="M150.6,820.4c-0.6,1.5-1.6,2.9-2.8,4s-2.6,2-4.2,2.7s-3.4,1-5.4,1h-8.7v-25.2h8.7c2,0,3.8,0.3,5.4,1
				c1.6,0.6,3.1,1.5,4.2,2.6c1.2,1.1,2.1,2.5,2.8,4c0.6,1.5,1,3.2,1,5C151.6,817.2,151.3,818.9,150.6,820.4z M147.9,811.6
				c-0.5-1.2-1.2-2.3-2.1-3.2c-0.9-0.9-2-1.6-3.3-2.1c-1.3-0.5-2.7-0.8-4.3-0.8h-5.9v19.9h5.9c1.6,0,3-0.2,4.3-0.8
				c1.3-0.5,2.4-1.2,3.3-2.1s1.6-2,2.1-3.2c0.5-1.2,0.7-2.5,0.7-3.9C148.7,814.1,148.4,812.8,147.9,811.6z"/>
			<path class="st167" d="M167.2,802.9V828h-2.8v-25.2H167.2z"/>
			<path class="st167" d="M183.5,810.8c0.2,0.5,0.5,0.9,1,1.3c0.5,0.4,1.2,0.8,2.1,1.1s2,0.6,3.4,0.9c2.8,0.6,4.9,1.5,6.2,2.6
				c1.3,1.1,2,2.6,2,4.6c0,1.1-0.2,2.1-0.6,3c-0.4,0.9-1,1.7-1.8,2.3s-1.6,1.1-2.7,1.4c-1.1,0.3-2.2,0.5-3.4,0.5c-2,0-3.9-0.3-5.5-1
				c-1.7-0.7-3.2-1.7-4.8-3l1.8-2.1c1.3,1.2,2.6,2.1,4,2.7c1.3,0.6,2.9,0.9,4.6,0.9c1.7,0,3.1-0.4,4.1-1.2s1.5-1.8,1.5-3.1
				c0-0.6-0.1-1.1-0.3-1.6c-0.2-0.5-0.5-0.9-1-1.3c-0.5-0.4-1.1-0.7-2-1s-1.9-0.6-3.3-0.9c-1.4-0.3-2.7-0.7-3.8-1.1
				c-1.1-0.4-1.9-0.9-2.6-1.5c-0.7-0.6-1.2-1.2-1.6-2s-0.5-1.7-0.5-2.7c0-1,0.2-1.9,0.6-2.8s1-1.6,1.7-2.2c0.7-0.6,1.6-1.1,2.6-1.4
				c1-0.3,2.1-0.5,3.3-0.5c1.9,0,3.5,0.2,4.8,0.8c1.4,0.5,2.7,1.3,4,2.3l-1.6,2.2c-1.2-1-2.4-1.7-3.5-2.1c-1.2-0.4-2.4-0.7-3.7-0.7
				c-0.8,0-1.6,0.1-2.2,0.3c-0.7,0.2-1.2,0.5-1.7,0.9s-0.8,0.8-1.1,1.3s-0.4,1-0.4,1.6C183.2,809.7,183.3,810.3,183.5,810.8z"/>
			<path class="st167" d="M228.6,814.5c-0.5,1-1.2,1.9-2.1,2.6s-1.9,1.2-3.1,1.6c-1.2,0.3-2.5,0.5-3.8,0.5h-6.1v8.9h-2.8v-25.2h9.4
				c1.4,0,2.7,0.2,3.9,0.6c1.2,0.4,2.2,0.9,3,1.6s1.5,1.5,1.9,2.5c0.4,1,0.7,2.1,0.7,3.4C229.4,812.3,229.1,813.5,228.6,814.5z
				 M224.7,806.9c-1.2-0.9-2.9-1.4-4.9-1.4h-6.4v11.1h6.2c1,0,2-0.1,2.8-0.4c0.9-0.3,1.6-0.6,2.2-1.1s1.1-1.1,1.4-1.8
				s0.5-1.4,0.5-2.3C226.5,809.2,225.9,807.8,224.7,806.9z"/>
			<path class="st167" d="M264.5,828h-3.1l-2.9-6.7h-13.7l-3,6.7h-2.9l11.5-25.4h2.7L264.5,828z M251.6,806l-5.8,12.8h11.5
				L251.6,806z"/>
			<path class="st167" d="M285.4,828h-2.8v-22.5h-8.5v-2.6h19.8v2.6h-8.5L285.4,828L285.4,828z"/>
			<path class="st167" d="M325.3,825.9c-0.7,0.5-1.5,1-2.3,1.4c-0.8,0.4-1.7,0.7-2.6,0.9c-0.9,0.2-2,0.3-3.1,0.3c-1.8,0-3.5-0.3-5-1
				c-1.5-0.7-2.9-1.6-4-2.8c-1.1-1.2-2-2.5-2.6-4.1c-0.6-1.6-1-3.3-1-5.1c0-1.8,0.3-3.5,1-5.1s1.5-3,2.6-4.2c1.1-1.2,2.5-2.1,4-2.8
				s3.3-1,5.1-1c1.1,0,2.2,0.1,3.1,0.3c0.9,0.2,1.8,0.5,2.6,0.8s1.5,0.8,2.2,1.3s1.3,1,1.9,1.6l-1.9,2.1c-1.1-1-2.2-1.8-3.5-2.5
				c-1.2-0.7-2.7-1-4.4-1c-1.4,0-2.7,0.3-3.9,0.8c-1.2,0.5-2.2,1.3-3.1,2.2c-0.9,0.9-1.6,2-2,3.3c-0.5,1.3-0.7,2.6-0.7,4.1
				s0.2,2.8,0.7,4.1c0.5,1.3,1.2,2.4,2,3.3c0.9,0.9,1.9,1.7,3.1,2.2c1.2,0.5,2.5,0.8,3.9,0.8c1.7,0,3.2-0.3,4.5-1s2.5-1.5,3.7-2.7
				l1.9,1.8C326.6,824.7,326,825.3,325.3,825.9z"/>
			<path class="st167" d="M341.6,816.7V828h-2.8v-25.2h2.8v11.2h14.5v-11.2h2.8V828h-2.8v-11.3H341.6z"/>
			<path class="st167" d="M392.3,810.8c0.2,0.5,0.5,0.9,1,1.3c0.5,0.4,1.2,0.8,2.1,1.1c0.9,0.3,2,0.6,3.4,0.9
				c2.8,0.6,4.9,1.5,6.2,2.6c1.3,1.1,2,2.6,2,4.6c0,1.1-0.2,2.1-0.6,3c-0.4,0.9-1,1.7-1.8,2.3s-1.6,1.1-2.7,1.4s-2.2,0.5-3.5,0.5
				c-2,0-3.9-0.3-5.5-1c-1.7-0.7-3.2-1.7-4.8-3l1.8-2.1c1.3,1.2,2.6,2.1,4,2.7c1.3,0.6,2.9,0.9,4.6,0.9c1.7,0,3.1-0.4,4.1-1.2
				s1.5-1.8,1.5-3.1c0-0.6-0.1-1.1-0.3-1.6s-0.5-0.9-1-1.3c-0.5-0.4-1.1-0.7-2-1s-1.9-0.6-3.3-0.9c-1.4-0.3-2.7-0.7-3.8-1.1
				c-1.1-0.4-2-0.9-2.6-1.5c-0.7-0.6-1.2-1.2-1.5-2s-0.5-1.7-0.5-2.7c0-1,0.2-1.9,0.6-2.8c0.4-0.8,1-1.6,1.7-2.2
				c0.7-0.6,1.6-1.1,2.6-1.4c1-0.3,2.1-0.5,3.3-0.5c1.9,0,3.5,0.2,4.8,0.8s2.7,1.3,4,2.3l-1.6,2.2c-1.2-1-2.4-1.7-3.5-2.1
				c-1.2-0.4-2.4-0.7-3.7-0.7c-0.8,0-1.5,0.1-2.2,0.3c-0.7,0.2-1.2,0.5-1.7,0.9s-0.8,0.8-1.1,1.3s-0.4,1-0.4,1.6
				C392,809.7,392.1,810.3,392.3,810.8z"/>
			<path class="st167" d="M437.5,805.5h-15.4v8.6h13.7v2.6h-13.7v8.8h15.5v2.6h-18.4v-25.2h18.2L437.5,805.5L437.5,805.5z"/>
			<path class="st167" d="M467.2,828l-7.3-9.8h-7.2v9.8h-2.8v-25.2h10.8c1.4,0,2.6,0.2,3.8,0.5s2.1,0.9,2.9,1.5
				c0.8,0.7,1.4,1.5,1.8,2.4c0.4,0.9,0.6,2,0.6,3.1c0,1.1-0.2,2-0.5,2.8c-0.3,0.8-0.8,1.5-1.4,2.2c-0.6,0.6-1.3,1.1-2.2,1.5
				c-0.8,0.4-1.8,0.7-2.7,0.9l7.7,10.3L467.2,828L467.2,828z M465.3,806.8c-1.1-0.9-2.7-1.3-4.8-1.3h-7.8v10.2h7.8
				c0.9,0,1.8-0.1,2.6-0.4c0.8-0.2,1.5-0.6,2.1-1s1-1,1.4-1.6s0.5-1.4,0.5-2.2C467,808.9,466.4,807.7,465.3,806.8z"/>
			<path class="st167" d="M501.3,802.9h3.1l-10.8,25.4H491l-10.8-25.4h3.2l9,21.7L501.3,802.9z"/>
			<path class="st167" d="M518.9,802.9V828h-2.8v-25.2H518.9z"/>
			<path class="st167" d="M552.3,825.9c-0.7,0.5-1.5,1-2.3,1.4c-0.8,0.4-1.7,0.7-2.6,0.9c-0.9,0.2-2,0.3-3.1,0.3c-1.8,0-3.5-0.3-5-1
				c-1.5-0.7-2.9-1.6-4-2.8c-1.1-1.2-2-2.5-2.6-4.1c-0.6-1.6-1-3.3-1-5.1c0-1.8,0.3-3.5,1-5.1s1.5-3,2.6-4.2c1.1-1.2,2.5-2.1,4-2.8
				s3.3-1,5.1-1c1.2,0,2.2,0.1,3.1,0.3s1.8,0.5,2.6,0.8s1.5,0.8,2.2,1.3s1.3,1,1.9,1.6l-1.9,2.1c-1.1-1-2.2-1.8-3.5-2.5
				c-1.2-0.7-2.7-1-4.4-1c-1.4,0-2.7,0.3-3.9,0.8c-1.2,0.5-2.2,1.3-3.1,2.2c-0.9,0.9-1.6,2-2,3.3c-0.5,1.3-0.7,2.6-0.7,4.1
				s0.2,2.8,0.7,4.1c0.5,1.3,1.2,2.4,2,3.3s1.9,1.7,3.1,2.2c1.2,0.5,2.5,0.8,3.9,0.8c1.7,0,3.2-0.3,4.5-1s2.5-1.5,3.7-2.7l1.9,1.8
				C553.7,824.7,553,825.3,552.3,825.9z"/>
			<path class="st167" d="M584,805.5h-15.4v8.6h13.7v2.6h-13.7v8.8h15.5v2.6h-18.4v-25.2H584V805.5z"/>
		</g>
	</g>
</g>
</svg>
